<?xml version="1.0" standalone="no"?>
<!DOCTYPE svg PUBLIC "-//W3C//DTD SVG 20010904//EN"
 "http://www.w3.org/TR/2001/REC-SVG-20010904/DTD/svg10.dtd">
<svg version="1.0" xmlns="http://www.w3.org/2000/svg"
 width="438.000000pt" height="453.000000pt" viewBox="0 0 438.000000 453.000000"
 preserveAspectRatio="xMidYMid meet">
<metadata>
Created by potrace 1.10, written by Peter Selinger 2001-2011
</metadata>
<g transform="translate(0.000000,453.000000) scale(0.100000,-0.100000)"
fill="#000000" stroke="none">
<path d="M1950 3868 c-101 -16 -205 -40 -238 -54 -18 -8 -40 -14 -48 -14 -9 0
-28 -6 -42 -13 -15 -8 -42 -21 -60 -30 -19 -9 -38 -17 -43 -17 -13 0 -159 -89
-189 -116 -14 -12 -57 -49 -96 -82 -65 -56 -210 -216 -227 -252 -4 -8 -16 -28
-27 -45 -11 -16 -24 -40 -29 -52 -5 -11 -15 -24 -20 -28 -6 -3 -11 -14 -11
-24 0 -9 -5 -22 -12 -29 -15 -15 -55 -128 -94 -267 -47 -168 -29 -550 32 -693
8 -18 14 -39 14 -47 0 -7 6 -26 14 -42 7 -15 21 -46 31 -68 9 -22 21 -47 26
-55 4 -8 20 -37 35 -65 15 -27 30 -52 33 -55 4 -3 24 -30 44 -60 50 -77 255
-281 300 -300 7 -3 30 -16 52 -30 23 -14 50 -30 60 -37 25 -15 146 -75 198
-97 53 -23 89 -20 116 7 20 22 21 32 19 148 l-3 124 -25 -2 c-14 -2 -53 -6
-88 -9 -108 -11 -208 22 -274 92 -15 16 -48 70 -73 119 -49 94 -83 137 -147
182 -53 36 -50 67 7 71 72 6 150 -49 263 -186 24 -28 48 -52 54 -52 6 0 20 -8
30 -17 15 -14 38 -17 116 -16 54 0 107 5 119 12 14 7 28 32 40 69 9 31 28 72
41 89 27 37 25 39 -48 46 -55 6 -126 25 -162 43 -14 8 -31 14 -38 14 -7 0 -32
14 -57 30 -24 17 -48 30 -52 30 -14 0 -111 98 -121 123 -6 12 -14 29 -19 37
-17 29 -39 86 -56 145 -26 89 -26 325 -1 386 35 83 51 114 74 139 32 35 36 59
21 140 -10 57 -10 86 1 155 17 112 33 127 110 113 54 -11 229 -88 262 -116 11
-9 29 -12 50 -9 204 34 286 39 420 28 75 -6 149 -16 163 -21 34 -13 82 -13 90
1 4 5 17 14 28 20 12 5 29 13 37 18 47 29 149 71 172 71 15 0 39 5 53 10 39
15 56 0 76 -66 23 -74 24 -184 3 -241 -16 -42 -16 -42 12 -80 61 -80 82 -126
100 -218 36 -182 -4 -391 -100 -520 -90 -121 -184 -174 -375 -216 -116 -25
-117 -25 -98 -47 46 -52 51 -86 57 -355 l5 -258 25 -19 c43 -34 72 -28 250 53
169 76 399 279 512 452 58 90 80 131 123 230 39 91 45 107 45 123 0 9 6 34 14
57 26 76 49 260 43 348 -6 90 -22 196 -39 267 -6 25 -14 61 -18 80 -8 35 -33
108 -49 145 -24 54 -54 113 -72 140 -10 17 -22 37 -26 45 -18 39 -133 182
-195 243 -63 61 -219 187 -232 187 -3 0 -25 14 -49 30 -25 17 -50 30 -55 30
-6 0 -23 6 -39 14 -65 33 -147 63 -203 76 -19 4 -55 12 -80 18 -132 31 -337
40 -460 20z"/>
</g>
</svg>
