<?xml version="1.0" standalone="no"?>
<!DOCTYPE svg PUBLIC "-//W3C//DTD SVG 20010904//EN"
 "http://www.w3.org/TR/2001/REC-SVG-20010904/DTD/svg10.dtd">
<svg version="1.0" xmlns="http://www.w3.org/2000/svg"
 width="411.000000pt" height="396.000000pt" viewBox="0 0 411.000000 396.000000"
 preserveAspectRatio="xMidYMid meet">
<metadata>
Created by potrace 1.10, written by Peter Selinger 2001-2011
</metadata>
<g transform="translate(0.000000,396.000000) scale(0.100000,-0.100000)"
fill="#000000" stroke="none">
<path d="M1745 3342 c-1 -2 -76 -7 -166 -12 -184 -11 -274 -32 -394 -93 -60
-30 -185 -125 -225 -171 -36 -41 -100 -141 -100 -156 0 -4 -6 -21 -14 -37 -23
-47 -36 -93 -56 -202 -19 -97 -20 -152 -20 -723 0 -647 2 -687 47 -838 14 -48
60 -151 97 -218 17 -30 152 -163 191 -187 30 -19 124 -66 198 -98 21 -9 52
-17 70 -17 18 -1 59 -7 92 -15 49 -12 176 -15 705 -15 417 0 658 4 680 10 19
6 62 15 95 19 51 7 85 17 140 38 6 2 19 9 30 16 11 7 49 29 85 49 168 96 281
258 336 483 24 95 35 505 29 995 -6 371 -10 459 -25 530 -17 85 -41 164 -59
197 -5 10 -12 25 -16 33 -6 15 -16 33 -49 85 -35 54 -160 170 -221 205 -69 40
-113 58 -171 70 -22 5 -51 13 -65 19 -43 18 -365 32 -792 34 -230 1 -420 1
-422 -1z m995 -254 c321 -15 516 -180 562 -478 19 -122 19 -1211 0 -1325 -13
-74 -32 -138 -53 -175 -4 -8 -18 -34 -29 -57 -27 -52 -124 -144 -182 -170
-165 -76 -189 -78 -873 -78 -651 0 -700 4 -835 60 -23 9 -50 26 -104 65 -45
33 -126 131 -126 153 0 6 -6 18 -13 26 -24 30 -46 116 -58 231 -18 162 -18
1043 -1 1210 17 159 42 238 106 325 39 52 52 65 106 101 62 42 127 74 149 74
10 0 34 6 52 14 20 8 91 16 168 20 74 3 137 9 140 12 6 6 826 -1 991 -8z"/>
<path d="M2865 2848 c-65 -24 -115 -92 -115 -159 0 -40 34 -101 72 -129 46
-34 140 -34 186 0 74 55 94 146 47 219 -27 44 -35 51 -85 68 -42 15 -65 15
-105 1z"/>
<path d="M1975 2641 c-132 -39 -242 -108 -335 -207 -51 -55 -120 -155 -120
-176 0 -7 -7 -22 -15 -32 -8 -11 -15 -27 -15 -36 0 -9 -8 -32 -17 -51 -26 -51
-25 -302 2 -379 44 -130 97 -221 179 -304 53 -55 176 -146 197 -146 6 0 23 -6
37 -14 73 -37 143 -50 285 -50 143 -1 182 6 282 49 17 7 37 16 45 19 90 39
229 169 286 268 82 145 114 312 90 468 -9 52 -22 114 -30 137 -80 222 -261
389 -497 457 -79 23 -292 21 -374 -3z m310 -243 c87 -19 137 -49 213 -125 39
-40 72 -79 72 -86 0 -7 5 -18 11 -24 50 -50 66 -262 29 -361 -78 -205 -229
-312 -440 -312 -108 0 -167 16 -247 68 -135 87 -223 239 -223 385 0 171 90
324 240 410 107 62 209 75 345 45z"/>
</g>
</svg>
